<svg xmlns="http://www.w3.org/2000/svg" xmlns:xlink="http://www.w3.org/1999/xlink" viewBox="0,0,256,256" width="50px"
  height="50px" fill-rule="nonzero">
  <g fill="#ffffff" fill-rule="nonzero" stroke="none" stroke-width="1" stroke-linecap="butt" stroke-linejoin="miter"
    stroke-miterlimit="10" stroke-dasharray="" stroke-dashoffset="0" font-family="none" font-weight="none"
    font-size="none" text-anchor="none" style="mix-blend-mode: normal">
    <g transform="scale(5.12,5.12)">
      <path
        d="M10.30078,12c-2.41016,0 -4.30078,1.93359 -4.30078,4.40234c0,0.91016 0.26172,1.47266 0.51563,1.90625l0.07813,0.16016l0.10547,0.12891c0.05078,0.07031 0.15234,0.21484 0.28516,0.40234h-6.98437v7.125l0.50391,1.50781l3,9l0.45313,1.36719h4.56641l0.46875,-1.34766l0.00781,-0.02734l0.00781,0.02734l0.46875,1.34766h9.94531l0.46875,-1.33984l0.23047,-0.66016h0.95703l0.23438,0.66016l0.46875,1.33984h11.21875v-0.54687c0.38281,0.25781 0.99609,0.54688 1.80078,0.54688h8.29688c2.51172,0 4.40234,-1.89062 4.40234,-4.40234c0,-0.91016 -0.26172,-1.47266 -0.51562,-1.90625l-0.09375,-0.1875l-0.12891,-0.15625l-0.28125,-0.34766h2.51953v-12h-3.73437c0.34375,-0.66406 0.53516,-1.41406 0.53516,-2.19922c0,-2.64844 -2.15234,-4.80078 -4.80078,-4.80078h-8v3.11719l-0.60937,-1.76953l-0.46484,-1.34766zM10.30078,14h13.69922v2h-4v7h-3v-7h-5.40234c-0.39844,0 -0.69531,0.30078 -0.69531,0.69922c0,0.10156 0.09766,0.19922 0.09766,0.30078l1.90234,2.59766c0.09766,0.20313 0.29688,0.40234 0.29688,1c0,1.40234 -1.09766,2.40234 -2.39844,2.40234h-8.80078v-2h7.60156c0.39844,0 0.69922,-0.30078 0.59766,-0.69922c0,-0.10156 -0.10156,-0.19922 -0.10156,-0.30078c0,0 -1.49609,-2.19922 -1.79687,-2.59766c-0.10156,-0.20312 -0.30078,-0.40234 -0.30078,-1c0,-1.40234 1,-2.40234 2.30078,-2.40234zM26.30078,14h4.19922l3.09766,9h-2.5l-0.69531,-2h-3.80469l-0.69531,2h-2.5zM35,14h6c1.5,0 2.80078,1.19922 2.80078,2.80078c0,1.30078 -0.90234,2.39844 -2.10156,2.69922c0,0 0.60156,0.5 1.10156,1.09766c0.19922,0.20313 0.39844,0.40234 0.79688,0.40234h3.40234v2h-5.19922c-0.39844,0 -0.69922,-0.19922 -0.80078,-0.30078c-0.77734,-0.69922 -2.33984,-2.18359 -3,-2.80859c0,0.98438 0,3.10938 0,3.10938h-3zM28.40234,15.40234l-1.20312,3.59766h2.39844zM38,16v2h2.30078c0.60156,0 1.10156,-0.39844 1.10156,-1c0,-0.60156 -0.5,-1 -1.10156,-1zM14.20703,18h0.79297v1.35156c-0.08984,-0.25781 -0.20312,-0.46875 -0.3125,-0.66016l-0.07812,-0.14453l-0.09375,-0.125zM22,18h0.91016l-0.91016,2.82422zM15,21.9375v3.0625h-4.19922c1.99609,0 3.64453,-1.26953 4.19922,-3.0625zM28.01953,23h0.96094l0.23438,0.66016l0.46875,1.33984h-2.36719l0.46875,-1.33984zM40,24.44922c0.38281,0.25781 0.99219,0.55078 1.80078,0.55078h0.5c-1.74219,0 -3.25,1.03906 -3.96094,2.54688c-0.8125,-1.51562 -2.40625,-2.54687 -4.24219,-2.54687h5.90234zM24.14063,25h1.85938v5.57422l-1.40234,-4.20703zM2.39844,27h2.5l1.30078,3.90234l1.40234,-3.90234h2.80078l1.29688,3.90234l1.30078,-3.90234h2.59766l-3,9h-1.69531l-1.90234,-5.5l-1.89844,5.5h-1.70312zM18.5,27h4.19922l3,9h-2.5l-0.69922,-2h-3.80078l-0.69922,2h-2.40234zM28,27h6.09766c1.5,0 2.80469,1.19922 2.80469,2.80078c0,1.30078 -0.90234,2.39844 -2.10156,2.69922c0,0 0.5,0.5 1,1.09766c0.19922,0.20313 0.39844,0.40234 0.79688,0.40234h5.30469c0.29688,0 0.59766,-0.30078 0.59766,-0.69922c0,-0.10156 -0.09766,-0.19922 -0.09766,-0.30078c0,0 -1.90234,-2.19922 -2.20312,-2.5c-0.10156,-0.19922 -0.29687,-0.39844 -0.29687,-1c0,-1.39844 1.09766,-2.5 2.39844,-2.5h4.69922v2h-3.30078c-0.30078,0 -0.60156,0.40234 -0.60156,0.80078c0,0.10156 0.10156,0.19922 0.10156,0.29688l2,2.5c0.10156,0.20313 0.30078,0.40234 0.30078,1c0,1.5 -1.10156,2.40234 -2.40234,2.40234h-8.29687c-0.39844,0 -0.69922,-0.19922 -0.80078,-0.30078c-0.77734,-0.69922 -2.34375,-2.19141 -3,-2.8125v3.11328h-3zM20.59766,28.40234l-1.19531,3.59766h2.39844zM31,29v2h2.30078c0.60156,0 1.10156,-0.39844 1.10156,-1c0,-0.60156 -0.5,-1 -1.10156,-1zM38.53125,31.64063l0.03125,0.05859l0.22266,0.21484c0.01953,0.01953 0.04688,0.04688 0.07813,0.08594h-0.49609c0.05859,-0.11719 0.11719,-0.23828 0.16406,-0.35937z" />
    </g>
  </g>
</svg>