<svg xmlns="http://www.w3.org/2000/svg" xmlns:xlink="http://www.w3.org/1999/xlink" viewBox="0,0,256,256" width="64px"
  height="64px" fill-rule="nonzero">
  <g fill="#ffffff" fill-rule="nonzero" stroke="none" stroke-width="1" stroke-linecap="butt" stroke-linejoin="miter"
    stroke-miterlimit="10" stroke-dasharray="" stroke-dashoffset="0" font-family="none" font-weight="none"
    font-size="none" text-anchor="none" style="mix-blend-mode: normal">
    <g transform="scale(4,4)">
      <path
        d="M25.36328,6c-7.657,0 -14.31641,4.9993 -14.31641,13.5293v0.4707h42v-0.4707c0,-8.53 -6.66136,-13.5293 -14.31836,-13.5293zM11.04688,23v3c-0.651,0.393 -1.08008,1.166 -1.08008,2l0.08008,6.0293c-1.44,1 -2,2.8737 -2,4.9707c0,1.752 1.357,4.347 2.5,5.5l2.5,2.5v6c2.584,4.325 6.50084,4.99805 10.33984,4.99805h2.95508c0.944,0 1.7965,-0.38205 2.4375,-0.99805h6.66992c0.641,0.616 1.49545,1 2.43945,1h2.95508c3.839,0 7.69081,-0.705 10.25781,-5v-6l3.02539,-3c1.169,-1.181 1.91992,-3.247 1.91992,-5c0,-2.098 -0.619,-3.874 -2,-5l0.08008,-6c0,-0.834 -0.42908,-1.57966 -1.08008,-1.97266v-3.02734zM28.06641,26c1.103,0 1.45047,1.453 0.48047,2l-9,6.42773c-0.51,0.288 -1.14955,0.09727 -1.43555,-0.42773l-3.06445,-6.34375c-0.4,-0.735 0.11078,-1.64648 0.92578,-1.64648zM36.04688,26h12.03906c0.814,0 1.36194,1.265 0.96094,2l-3.06641,6c-0.286,0.525 -0.92359,0.71473 -1.43359,0.42773l-8.98047,-6.42773c-0.969,-0.547 -0.62153,-2 0.48047,-2zM32.08008,34.0293c1.589,0.006 3.163,0.60364 4.5,1.68164l10.82617,9.28906l-11.74023,-6.23437c-2.203,-1.081 -4.89956,-1.081 -7.10156,0l-11.87891,6.23438l10.96484,-9.28906c1.337,-1.078 2.90969,-1.67464 4.42969,-1.68164zM13.90234,36.71484c0.27975,0 0.55944,0.11053 0.77344,0.33203c0.428,0.442 0.428,1.15661 0,1.59961l-0.77344,0.80078c-0.214,0.221 -0.49344,0.33203 -0.77344,0.33203c-0.28,0 -0.56044,-0.11103 -0.77344,-0.33203c-0.427,-0.441 -0.427,-1.15661 0,-1.59961l0.77344,-0.80078c0.214,-0.2215 0.49369,-0.33203 0.77344,-0.33203zM50.32617,36.7168c0.27987,0 0.56139,0.11053 0.77539,0.33203l0.77148,0.80078c0.427,0.441 0.427,1.15661 0,1.59961c-0.213,0.221 -0.49148,0.33008 -0.77148,0.33008c-0.28,0 -0.56239,-0.11008 -0.77539,-0.33008l-0.77148,-0.80078c-0.428,-0.442 -0.428,-1.15761 0,-1.59961c0.2135,-0.2215 0.49161,-0.33203 0.77148,-0.33203zM16.08984,38.98047c0.27975,0 0.55944,0.10908 0.77344,0.33008c0.428,0.443 0.428,1.15761 0,1.59961l-0.77148,0.80078c-0.214,0.22 -0.49539,0.33203 -0.77539,0.33203c-0.28,0 -0.55848,-0.11203 -0.77148,-0.33203c-0.427,-0.441 -0.427,-1.15761 0,-1.59961l0.77148,-0.80078c0.214,-0.221 0.49369,-0.33008 0.77344,-0.33008zM48.13867,38.98047c0.27987,0 0.55944,0.11053 0.77344,0.33203l0.77344,0.79883c0.427,0.441 0.427,1.15856 0,1.60156c-0.213,0.221 -0.49344,0.33008 -0.77344,0.33008c-0.281,0 -0.56044,-0.11008 -0.77344,-0.33008l-0.77344,-0.80078c-0.428,-0.442 -0.428,-1.15761 0,-1.59961c0.2135,-0.2215 0.49356,-0.33203 0.77344,-0.33203zM30.04688,44h4c0.48,0 0.95898,0.373 0.95898,1c0,1.54 1.31178,3 2.80078,3h3.35938c1.92,0 2.88086,1 2.88086,3v2c0,2 -0.96086,3 -2.88086,3h-3.35937c-1.311,0 -1.87481,-0.92942 -2.00781,-1.73242c-0.195,-1.366 -0.42122,-2.95144 -0.57422,-4.02344c-0.102,-0.714 -0.71455,-1.24414 -1.43555,-1.24414h-3.46484c-0.73,0 -1.34555,0.54453 -1.43555,1.26953c-0.137,1.093 -0.33777,2.70317 -0.50977,4.07617c-0.197,0.999 -0.74675,1.6543 -2.09375,1.6543c0,0 -2.28791,0.0293 -3.37891,0.0293c-1.901,0 -2.85937,-1 -2.85937,-3v-2.0293c0,-1.971 0.95838,-2.9707 2.85938,-2.9707l3.43555,-0.0293c1.865,0 2.74414,-1.427 2.74414,-3c0,-0.5 0.48094,-1 0.96094,-1zM24.04688,50c-1.10457,0 -2,0.89543 -2,2c0,1.10457 0.89543,2 2,2c1.10457,0 2,-0.89543 2,-2c0,-1.10457 -0.89543,-2 -2,-2zM40.04688,50c-1.10457,0 -2,0.89543 -2,2c0,1.10457 0.89543,2 2,2c1.10457,0 2,-0.89543 2,-2c0,-1.10457 -0.89543,-2 -2,-2z">
      </path>
    </g>
  </g>
</svg>